<mxfile host="app.diagrams.net" modified="2024-04-05T15:32:08.432Z" agent="Mozilla/5.0 (Windows NT 10.0; Win64; x64) AppleWebKit/537.36 (KHTML, like Gecko) Chrome/123.0.0.0 Safari/537.36 Edg/123.0.0.0" etag="j68Mcsc8pXyyqloPAtoo" version="24.2.2" type="device">
  <diagram name="StrÃ¡nka-1" id="fmsHy0zEb_meXDt2Ar2w">
    <mxGraphModel dx="1583" dy="541" grid="1" gridSize="10" guides="1" tooltips="1" connect="1" arrows="1" fold="1" page="1" pageScale="1" pageWidth="600" pageHeight="300" math="0" shadow="0">
      <root>
        <mxCell id="0" />
        <mxCell id="1" parent="0" />
        <mxCell id="HuM6soPUqiHk9_S0FPry-39" value="" style="ellipse;whiteSpace=wrap;html=1;aspect=fixed;" vertex="1" parent="1">
          <mxGeometry x="-220" y="23" width="200" height="200" as="geometry" />
        </mxCell>
        <mxCell id="HuM6soPUqiHk9_S0FPry-1" value="" style="rounded=0;whiteSpace=wrap;html=1;fillColor=#fad7ac;strokeColor=#b46504;" vertex="1" parent="1">
          <mxGeometry x="-560" y="83" width="320" height="60" as="geometry" />
        </mxCell>
        <mxCell id="HuM6soPUqiHk9_S0FPry-6" value="" style="rounded=0;whiteSpace=wrap;html=1;fillColor=#dae8fc;strokeColor=#6c8ebf;" vertex="1" parent="1">
          <mxGeometry x="-520" y="3" width="10" height="60" as="geometry" />
        </mxCell>
        <mxCell id="HuM6soPUqiHk9_S0FPry-7" value="" style="rounded=0;whiteSpace=wrap;html=1;fillColor=#fad7ac;strokeColor=#b46504;" vertex="1" parent="1">
          <mxGeometry x="-490" y="23" width="10" height="60" as="geometry" />
        </mxCell>
        <mxCell id="HuM6soPUqiHk9_S0FPry-8" value="" style="rounded=0;whiteSpace=wrap;html=1;fillColor=#b1ddf0;strokeColor=#10739e;" vertex="1" parent="1">
          <mxGeometry x="-460" y="3" width="10" height="60" as="geometry" />
        </mxCell>
        <mxCell id="HuM6soPUqiHk9_S0FPry-9" value="" style="rounded=0;whiteSpace=wrap;html=1;fillColor=#fad7ac;strokeColor=#b46504;" vertex="1" parent="1">
          <mxGeometry x="-430" y="23" width="10" height="60" as="geometry" />
        </mxCell>
        <mxCell id="HuM6soPUqiHk9_S0FPry-10" value="" style="rounded=0;whiteSpace=wrap;html=1;fillColor=#dae8fc;strokeColor=#6c8ebf;" vertex="1" parent="1">
          <mxGeometry x="-405" y="3" width="10" height="60" as="geometry" />
        </mxCell>
        <mxCell id="HuM6soPUqiHk9_S0FPry-11" value="" style="rounded=0;whiteSpace=wrap;html=1;fillColor=#fad7ac;strokeColor=#b46504;" vertex="1" parent="1">
          <mxGeometry x="-380" y="23" width="10" height="60" as="geometry" />
        </mxCell>
        <mxCell id="HuM6soPUqiHk9_S0FPry-12" value="" style="rounded=0;whiteSpace=wrap;html=1;fillColor=#b1ddf0;strokeColor=#10739e;" vertex="1" parent="1">
          <mxGeometry x="-350" y="3" width="10" height="60" as="geometry" />
        </mxCell>
        <mxCell id="HuM6soPUqiHk9_S0FPry-13" value="" style="rounded=0;whiteSpace=wrap;html=1;fillColor=#fad7ac;strokeColor=#b46504;" vertex="1" parent="1">
          <mxGeometry x="-320" y="23" width="10" height="60" as="geometry" />
        </mxCell>
        <mxCell id="HuM6soPUqiHk9_S0FPry-14" value="" style="rounded=0;whiteSpace=wrap;html=1;fillColor=#dae8fc;strokeColor=#6c8ebf;" vertex="1" parent="1">
          <mxGeometry x="-290" y="3" width="10" height="60" as="geometry" />
        </mxCell>
        <mxCell id="HuM6soPUqiHk9_S0FPry-17" value="" style="rounded=0;whiteSpace=wrap;html=1;fillColor=#dae8fc;strokeColor=#6c8ebf;" vertex="1" parent="1">
          <mxGeometry x="-520" y="163" width="10" height="60" as="geometry" />
        </mxCell>
        <mxCell id="HuM6soPUqiHk9_S0FPry-18" value="" style="rounded=0;whiteSpace=wrap;html=1;fillColor=#fad7ac;strokeColor=#b46504;" vertex="1" parent="1">
          <mxGeometry x="-490" y="143" width="10" height="60" as="geometry" />
        </mxCell>
        <mxCell id="HuM6soPUqiHk9_S0FPry-19" value="" style="rounded=0;whiteSpace=wrap;html=1;fillColor=#b1ddf0;strokeColor=#10739e;" vertex="1" parent="1">
          <mxGeometry x="-460" y="163" width="10" height="60" as="geometry" />
        </mxCell>
        <mxCell id="HuM6soPUqiHk9_S0FPry-20" value="" style="rounded=0;whiteSpace=wrap;html=1;fillColor=#fad7ac;strokeColor=#b46504;" vertex="1" parent="1">
          <mxGeometry x="-430" y="143" width="10" height="60" as="geometry" />
        </mxCell>
        <mxCell id="HuM6soPUqiHk9_S0FPry-21" value="" style="rounded=0;whiteSpace=wrap;html=1;fillColor=#dae8fc;strokeColor=#6c8ebf;" vertex="1" parent="1">
          <mxGeometry x="-405" y="163" width="10" height="60" as="geometry" />
        </mxCell>
        <mxCell id="HuM6soPUqiHk9_S0FPry-22" value="" style="rounded=0;whiteSpace=wrap;html=1;fillColor=#fad7ac;strokeColor=#b46504;" vertex="1" parent="1">
          <mxGeometry x="-380" y="143" width="10" height="60" as="geometry" />
        </mxCell>
        <mxCell id="HuM6soPUqiHk9_S0FPry-23" value="" style="rounded=0;whiteSpace=wrap;html=1;fillColor=#b1ddf0;strokeColor=#10739e;" vertex="1" parent="1">
          <mxGeometry x="-350" y="163" width="10" height="60" as="geometry" />
        </mxCell>
        <mxCell id="HuM6soPUqiHk9_S0FPry-24" value="" style="rounded=0;whiteSpace=wrap;html=1;fillColor=#fad7ac;strokeColor=#b46504;" vertex="1" parent="1">
          <mxGeometry x="-320" y="143" width="10" height="60" as="geometry" />
        </mxCell>
        <mxCell id="HuM6soPUqiHk9_S0FPry-25" value="" style="rounded=0;whiteSpace=wrap;html=1;fillColor=#dae8fc;strokeColor=#6c8ebf;" vertex="1" parent="1">
          <mxGeometry x="-290" y="163" width="10" height="60" as="geometry" />
        </mxCell>
        <mxCell id="HuM6soPUqiHk9_S0FPry-29" value="" style="endArrow=classic;startArrow=classic;html=1;rounded=0;" edge="1" parent="1">
          <mxGeometry width="50" height="50" relative="1" as="geometry">
            <mxPoint x="-560" y="263" as="sourcePoint" />
            <mxPoint x="-240" y="263" as="targetPoint" />
          </mxGeometry>
        </mxCell>
        <mxCell id="HuM6soPUqiHk9_S0FPry-31" value="Movement due to acceleration" style="text;html=1;align=center;verticalAlign=middle;whiteSpace=wrap;rounded=0;" vertex="1" parent="1">
          <mxGeometry x="-495" y="268" width="200" height="30" as="geometry" />
        </mxCell>
        <mxCell id="HuM6soPUqiHk9_S0FPry-33" value="" style="rounded=0;whiteSpace=wrap;html=1;rotation=90;fillColor=#b1ddf0;strokeColor=#10739e;" vertex="1" parent="1">
          <mxGeometry x="-230" y="103" width="120" height="20" as="geometry" />
        </mxCell>
        <mxCell id="HuM6soPUqiHk9_S0FPry-34" value="" style="rounded=0;whiteSpace=wrap;html=1;rotation=90;fillColor=#fad7ac;strokeColor=#b46504;" vertex="1" parent="1">
          <mxGeometry x="-180" y="83" width="120" height="20" as="geometry" />
        </mxCell>
        <mxCell id="HuM6soPUqiHk9_S0FPry-35" value="" style="rounded=0;whiteSpace=wrap;html=1;rotation=90;fillColor=#dae8fc;strokeColor=#6c8ebf;" vertex="1" parent="1">
          <mxGeometry x="-130" y="103" width="120" height="20" as="geometry" />
        </mxCell>
        <mxCell id="HuM6soPUqiHk9_S0FPry-36" value="" style="endArrow=classic;startArrow=classic;html=1;rounded=0;" edge="1" parent="1">
          <mxGeometry width="50" height="50" relative="1" as="geometry">
            <mxPoint x="-160" y="150" as="sourcePoint" />
            <mxPoint x="-130" y="150" as="targetPoint" />
          </mxGeometry>
        </mxCell>
        <mxCell id="HuM6soPUqiHk9_S0FPry-38" value="" style="endArrow=classic;startArrow=classic;html=1;rounded=0;entryX=0.75;entryY=1;entryDx=0;entryDy=0;" edge="1" parent="1">
          <mxGeometry width="50" height="50" relative="1" as="geometry">
            <mxPoint x="-110" y="150" as="sourcePoint" />
            <mxPoint x="-80" y="150.00000000000006" as="targetPoint" />
          </mxGeometry>
        </mxCell>
        <mxCell id="HuM6soPUqiHk9_S0FPry-41" value="" style="endArrow=none;html=1;rounded=0;entryX=0;entryY=0;entryDx=0;entryDy=0;exitX=0;exitY=0;exitDx=0;exitDy=0;" edge="1" parent="1" source="HuM6soPUqiHk9_S0FPry-40" target="HuM6soPUqiHk9_S0FPry-39">
          <mxGeometry width="50" height="50" relative="1" as="geometry">
            <mxPoint x="-260" y="273" as="sourcePoint" />
            <mxPoint x="-210" y="223" as="targetPoint" />
          </mxGeometry>
        </mxCell>
        <mxCell id="HuM6soPUqiHk9_S0FPry-43" value="" style="endArrow=none;html=1;rounded=0;entryX=0.5;entryY=1;entryDx=0;entryDy=0;exitX=0.5;exitY=1;exitDx=0;exitDy=0;" edge="1" parent="1" source="HuM6soPUqiHk9_S0FPry-40" target="HuM6soPUqiHk9_S0FPry-39">
          <mxGeometry width="50" height="50" relative="1" as="geometry">
            <mxPoint x="-340" y="168" as="sourcePoint" />
            <mxPoint x="-181" y="62" as="targetPoint" />
          </mxGeometry>
        </mxCell>
        <mxCell id="HuM6soPUqiHk9_S0FPry-47" value="" style="endArrow=none;html=1;rounded=0;" edge="1" parent="1">
          <mxGeometry width="50" height="50" relative="1" as="geometry">
            <mxPoint x="-570" y="183" as="sourcePoint" />
            <mxPoint x="-550" y="178" as="targetPoint" />
          </mxGeometry>
        </mxCell>
        <mxCell id="HuM6soPUqiHk9_S0FPry-49" value="" style="endArrow=none;html=1;rounded=0;" edge="1" parent="1">
          <mxGeometry width="50" height="50" relative="1" as="geometry">
            <mxPoint x="-570" y="173" as="sourcePoint" />
            <mxPoint x="-550" y="178" as="targetPoint" />
          </mxGeometry>
        </mxCell>
        <mxCell id="HuM6soPUqiHk9_S0FPry-50" value="" style="endArrow=none;html=1;rounded=0;" edge="1" parent="1">
          <mxGeometry width="50" height="50" relative="1" as="geometry">
            <mxPoint x="-570" y="173" as="sourcePoint" />
            <mxPoint x="-550" y="168" as="targetPoint" />
          </mxGeometry>
        </mxCell>
        <mxCell id="HuM6soPUqiHk9_S0FPry-51" value="" style="endArrow=none;html=1;rounded=0;" edge="1" parent="1">
          <mxGeometry width="50" height="50" relative="1" as="geometry">
            <mxPoint x="-570" y="163" as="sourcePoint" />
            <mxPoint x="-550" y="168" as="targetPoint" />
          </mxGeometry>
        </mxCell>
        <mxCell id="HuM6soPUqiHk9_S0FPry-52" value="" style="endArrow=none;html=1;rounded=0;" edge="1" parent="1">
          <mxGeometry width="50" height="50" relative="1" as="geometry">
            <mxPoint x="-570" y="163" as="sourcePoint" />
            <mxPoint x="-550" y="158" as="targetPoint" />
          </mxGeometry>
        </mxCell>
        <mxCell id="HuM6soPUqiHk9_S0FPry-53" value="" style="endArrow=none;html=1;rounded=0;" edge="1" parent="1">
          <mxGeometry width="50" height="50" relative="1" as="geometry">
            <mxPoint x="-570" y="153" as="sourcePoint" />
            <mxPoint x="-550" y="158" as="targetPoint" />
          </mxGeometry>
        </mxCell>
        <mxCell id="HuM6soPUqiHk9_S0FPry-54" value="" style="endArrow=none;html=1;rounded=0;" edge="1" parent="1">
          <mxGeometry width="50" height="50" relative="1" as="geometry">
            <mxPoint x="-570" y="153" as="sourcePoint" />
            <mxPoint x="-560" y="143" as="targetPoint" />
            <Array as="points">
              <mxPoint x="-560" y="153" />
            </Array>
          </mxGeometry>
        </mxCell>
        <mxCell id="HuM6soPUqiHk9_S0FPry-56" value="" style="endArrow=none;html=1;rounded=0;" edge="1" parent="1">
          <mxGeometry width="50" height="50" relative="1" as="geometry">
            <mxPoint x="-560" y="188" as="sourcePoint" />
            <mxPoint x="-570" y="183" as="targetPoint" />
            <Array as="points" />
          </mxGeometry>
        </mxCell>
        <mxCell id="HuM6soPUqiHk9_S0FPry-71" value="" style="ellipse;whiteSpace=wrap;html=1;aspect=fixed;" vertex="1" parent="1">
          <mxGeometry x="-562.5" y="185.5" width="5" height="5" as="geometry" />
        </mxCell>
        <mxCell id="HuM6soPUqiHk9_S0FPry-72" value="" style="endArrow=none;html=1;rounded=0;" edge="1" parent="1">
          <mxGeometry width="50" height="50" relative="1" as="geometry">
            <mxPoint x="-250" y="183" as="sourcePoint" />
            <mxPoint x="-230" y="178" as="targetPoint" />
          </mxGeometry>
        </mxCell>
        <mxCell id="HuM6soPUqiHk9_S0FPry-73" value="" style="endArrow=none;html=1;rounded=0;" edge="1" parent="1">
          <mxGeometry width="50" height="50" relative="1" as="geometry">
            <mxPoint x="-250" y="173" as="sourcePoint" />
            <mxPoint x="-230" y="178" as="targetPoint" />
          </mxGeometry>
        </mxCell>
        <mxCell id="HuM6soPUqiHk9_S0FPry-74" value="" style="endArrow=none;html=1;rounded=0;" edge="1" parent="1">
          <mxGeometry width="50" height="50" relative="1" as="geometry">
            <mxPoint x="-250" y="173" as="sourcePoint" />
            <mxPoint x="-230" y="168" as="targetPoint" />
          </mxGeometry>
        </mxCell>
        <mxCell id="HuM6soPUqiHk9_S0FPry-75" value="" style="endArrow=none;html=1;rounded=0;" edge="1" parent="1">
          <mxGeometry width="50" height="50" relative="1" as="geometry">
            <mxPoint x="-250" y="163" as="sourcePoint" />
            <mxPoint x="-230" y="168" as="targetPoint" />
          </mxGeometry>
        </mxCell>
        <mxCell id="HuM6soPUqiHk9_S0FPry-76" value="" style="endArrow=none;html=1;rounded=0;" edge="1" parent="1">
          <mxGeometry width="50" height="50" relative="1" as="geometry">
            <mxPoint x="-250" y="163" as="sourcePoint" />
            <mxPoint x="-230" y="158" as="targetPoint" />
          </mxGeometry>
        </mxCell>
        <mxCell id="HuM6soPUqiHk9_S0FPry-77" value="" style="endArrow=none;html=1;rounded=0;" edge="1" parent="1">
          <mxGeometry width="50" height="50" relative="1" as="geometry">
            <mxPoint x="-250" y="153" as="sourcePoint" />
            <mxPoint x="-230" y="158" as="targetPoint" />
          </mxGeometry>
        </mxCell>
        <mxCell id="HuM6soPUqiHk9_S0FPry-78" value="" style="endArrow=none;html=1;rounded=0;" edge="1" parent="1">
          <mxGeometry width="50" height="50" relative="1" as="geometry">
            <mxPoint x="-250" y="153" as="sourcePoint" />
            <mxPoint x="-240" y="143" as="targetPoint" />
            <Array as="points">
              <mxPoint x="-240" y="153" />
            </Array>
          </mxGeometry>
        </mxCell>
        <mxCell id="HuM6soPUqiHk9_S0FPry-79" value="" style="endArrow=none;html=1;rounded=0;" edge="1" parent="1">
          <mxGeometry width="50" height="50" relative="1" as="geometry">
            <mxPoint x="-240" y="188" as="sourcePoint" />
            <mxPoint x="-250" y="183" as="targetPoint" />
            <Array as="points" />
          </mxGeometry>
        </mxCell>
        <mxCell id="HuM6soPUqiHk9_S0FPry-80" value="" style="ellipse;whiteSpace=wrap;html=1;aspect=fixed;" vertex="1" parent="1">
          <mxGeometry x="-242.5" y="185.5" width="5" height="5" as="geometry" />
        </mxCell>
        <mxCell id="HuM6soPUqiHk9_S0FPry-81" value="" style="endArrow=none;html=1;rounded=0;" edge="1" parent="1">
          <mxGeometry width="50" height="50" relative="1" as="geometry">
            <mxPoint x="-570" y="73" as="sourcePoint" />
            <mxPoint x="-550" y="68" as="targetPoint" />
          </mxGeometry>
        </mxCell>
        <mxCell id="HuM6soPUqiHk9_S0FPry-82" value="" style="endArrow=none;html=1;rounded=0;" edge="1" parent="1">
          <mxGeometry width="50" height="50" relative="1" as="geometry">
            <mxPoint x="-570" y="63" as="sourcePoint" />
            <mxPoint x="-550" y="68" as="targetPoint" />
          </mxGeometry>
        </mxCell>
        <mxCell id="HuM6soPUqiHk9_S0FPry-83" value="" style="endArrow=none;html=1;rounded=0;" edge="1" parent="1">
          <mxGeometry width="50" height="50" relative="1" as="geometry">
            <mxPoint x="-570" y="63" as="sourcePoint" />
            <mxPoint x="-550" y="58" as="targetPoint" />
          </mxGeometry>
        </mxCell>
        <mxCell id="HuM6soPUqiHk9_S0FPry-84" value="" style="endArrow=none;html=1;rounded=0;" edge="1" parent="1">
          <mxGeometry width="50" height="50" relative="1" as="geometry">
            <mxPoint x="-570" y="53" as="sourcePoint" />
            <mxPoint x="-550" y="58" as="targetPoint" />
          </mxGeometry>
        </mxCell>
        <mxCell id="HuM6soPUqiHk9_S0FPry-85" value="" style="endArrow=none;html=1;rounded=0;" edge="1" parent="1">
          <mxGeometry width="50" height="50" relative="1" as="geometry">
            <mxPoint x="-570" y="53" as="sourcePoint" />
            <mxPoint x="-550" y="48" as="targetPoint" />
          </mxGeometry>
        </mxCell>
        <mxCell id="HuM6soPUqiHk9_S0FPry-86" value="" style="endArrow=none;html=1;rounded=0;" edge="1" parent="1">
          <mxGeometry width="50" height="50" relative="1" as="geometry">
            <mxPoint x="-570" y="43" as="sourcePoint" />
            <mxPoint x="-550" y="48" as="targetPoint" />
          </mxGeometry>
        </mxCell>
        <mxCell id="HuM6soPUqiHk9_S0FPry-40" value="" style="ellipse;whiteSpace=wrap;html=1;aspect=fixed;fillColor=none;" vertex="1" parent="1">
          <mxGeometry x="-365" y="143" width="100" height="100" as="geometry" />
        </mxCell>
        <mxCell id="HuM6soPUqiHk9_S0FPry-101" value="" style="endArrow=none;html=1;rounded=0;" edge="1" parent="1">
          <mxGeometry width="50" height="50" relative="1" as="geometry">
            <mxPoint x="-560" y="83" as="sourcePoint" />
            <mxPoint x="-570" y="73" as="targetPoint" />
            <Array as="points">
              <mxPoint x="-560" y="73" />
            </Array>
          </mxGeometry>
        </mxCell>
        <mxCell id="HuM6soPUqiHk9_S0FPry-102" value="" style="endArrow=none;html=1;rounded=0;" edge="1" parent="1">
          <mxGeometry width="50" height="50" relative="1" as="geometry">
            <mxPoint x="-560" y="38" as="sourcePoint" />
            <mxPoint x="-570" y="43" as="targetPoint" />
            <Array as="points" />
          </mxGeometry>
        </mxCell>
        <mxCell id="HuM6soPUqiHk9_S0FPry-103" value="" style="ellipse;whiteSpace=wrap;html=1;aspect=fixed;" vertex="1" parent="1">
          <mxGeometry x="-562" y="35.5" width="5" height="5" as="geometry" />
        </mxCell>
        <mxCell id="HuM6soPUqiHk9_S0FPry-113" value="" style="endArrow=none;html=1;rounded=0;" edge="1" parent="1">
          <mxGeometry width="50" height="50" relative="1" as="geometry">
            <mxPoint x="-250" y="73" as="sourcePoint" />
            <mxPoint x="-230" y="68" as="targetPoint" />
          </mxGeometry>
        </mxCell>
        <mxCell id="HuM6soPUqiHk9_S0FPry-114" value="" style="endArrow=none;html=1;rounded=0;" edge="1" parent="1">
          <mxGeometry width="50" height="50" relative="1" as="geometry">
            <mxPoint x="-250" y="63" as="sourcePoint" />
            <mxPoint x="-230" y="68" as="targetPoint" />
          </mxGeometry>
        </mxCell>
        <mxCell id="HuM6soPUqiHk9_S0FPry-115" value="" style="endArrow=none;html=1;rounded=0;" edge="1" parent="1">
          <mxGeometry width="50" height="50" relative="1" as="geometry">
            <mxPoint x="-250" y="63" as="sourcePoint" />
            <mxPoint x="-230" y="58" as="targetPoint" />
          </mxGeometry>
        </mxCell>
        <mxCell id="HuM6soPUqiHk9_S0FPry-116" value="" style="endArrow=none;html=1;rounded=0;" edge="1" parent="1">
          <mxGeometry width="50" height="50" relative="1" as="geometry">
            <mxPoint x="-250" y="53" as="sourcePoint" />
            <mxPoint x="-230" y="58" as="targetPoint" />
          </mxGeometry>
        </mxCell>
        <mxCell id="HuM6soPUqiHk9_S0FPry-117" value="" style="endArrow=none;html=1;rounded=0;" edge="1" parent="1">
          <mxGeometry width="50" height="50" relative="1" as="geometry">
            <mxPoint x="-250" y="53" as="sourcePoint" />
            <mxPoint x="-230" y="48" as="targetPoint" />
          </mxGeometry>
        </mxCell>
        <mxCell id="HuM6soPUqiHk9_S0FPry-118" value="" style="endArrow=none;html=1;rounded=0;" edge="1" parent="1">
          <mxGeometry width="50" height="50" relative="1" as="geometry">
            <mxPoint x="-250" y="43" as="sourcePoint" />
            <mxPoint x="-230" y="48" as="targetPoint" />
          </mxGeometry>
        </mxCell>
        <mxCell id="HuM6soPUqiHk9_S0FPry-119" value="" style="endArrow=none;html=1;rounded=0;" edge="1" parent="1">
          <mxGeometry width="50" height="50" relative="1" as="geometry">
            <mxPoint x="-240" y="83" as="sourcePoint" />
            <mxPoint x="-250" y="73" as="targetPoint" />
            <Array as="points">
              <mxPoint x="-240" y="73" />
            </Array>
          </mxGeometry>
        </mxCell>
        <mxCell id="HuM6soPUqiHk9_S0FPry-120" value="" style="endArrow=none;html=1;rounded=0;" edge="1" parent="1">
          <mxGeometry width="50" height="50" relative="1" as="geometry">
            <mxPoint x="-240" y="38" as="sourcePoint" />
            <mxPoint x="-250" y="43" as="targetPoint" />
            <Array as="points" />
          </mxGeometry>
        </mxCell>
        <mxCell id="HuM6soPUqiHk9_S0FPry-121" value="" style="ellipse;whiteSpace=wrap;html=1;aspect=fixed;" vertex="1" parent="1">
          <mxGeometry x="-242" y="35.5" width="5" height="5" as="geometry" />
        </mxCell>
        <mxCell id="HuM6soPUqiHk9_S0FPry-122" value="&lt;font style=&quot;font-size: 10px;&quot;&gt;d - x&lt;/font&gt;" style="text;html=1;align=center;verticalAlign=middle;whiteSpace=wrap;rounded=0;" vertex="1" parent="1">
          <mxGeometry x="-170" y="150" width="50" height="30" as="geometry" />
        </mxCell>
        <mxCell id="HuM6soPUqiHk9_S0FPry-123" value="&lt;font style=&quot;font-size: 10px;&quot;&gt;d + x&lt;/font&gt;" style="text;html=1;align=center;verticalAlign=middle;whiteSpace=wrap;rounded=0;" vertex="1" parent="1">
          <mxGeometry x="-120" y="150" width="50" height="30" as="geometry" />
        </mxCell>
      </root>
    </mxGraphModel>
  </diagram>
</mxfile>
